<svg width="471" height="239" viewBox="0 0 471 239" fill="none" xmlns="http://www.w3.org/2000/svg">
<path d="M108 35.0002C104.805 17.2194 113.723 -10.5421 68.5 40.0002L151.5 60.5L174.5 74.5001C174.5 74.5001 161.996 156.45 197.5 98.5002C233.004 40.5503 210.434 62.4706 180 70.0002C188.554 37.3104 180.907 50.4346 160 52.0002C158.349 -2.75113 189.888 -21.4332 108 35.0002Z" fill="#FFEC9D"/>
<path fill-rule="evenodd" clip-rule="evenodd" d="M134.373 67.9448C131.341 68.6444 128.952 70.1512 128.303 71.7714C128.161 72.1255 127.882 72.6294 127.682 72.8908C126.485 74.4632 126.404 77.5256 127.503 79.6932C127.874 80.4261 128.329 81.3246 128.514 81.6895C128.826 82.3046 129.25 82.6428 131.793 84.306C133.638 85.5136 138.82 85.1256 140.011 83.691C140.165 83.5054 140.642 83.1743 141.072 82.955C141.58 82.6956 141.957 82.3071 142.151 81.8423C142.315 81.4496 142.671 80.8284 142.942 80.462C144.506 78.3447 144.515 74.6447 142.962 72.5827C142.692 72.2234 142.471 71.8262 142.471 71.6991C142.471 69.9139 136.943 67.3507 134.373 67.9448ZM69.9978 72.8041C69.434 72.9507 68.5268 73.3731 67.9814 73.7431C67.4361 74.1127 66.5381 74.5873 65.9861 74.7969C65.4336 75.007 64.5423 75.4914 64.0046 75.8737C63.467 76.2561 62.6121 76.7768 62.1047 77.0316C61.5972 77.2858 60.9053 77.7199 60.567 77.9962C60.2288 78.2729 59.5368 78.766 59.0294 79.092C56.6159 80.6439 54.9342 81.9355 52.7734 83.896C52.2762 84.347 51.3941 85.1312 50.8134 85.6386C50.2327 86.146 49.4962 86.838 49.1764 87.1762C48.8566 87.5145 48.4614 87.9164 48.2984 88.0691C47.7131 88.618 46.7152 89.6544 45.8023 90.6615C45.2913 91.2253 44.4139 92.1627 43.8531 92.7445C43.2919 93.3262 42.8332 93.9049 42.8332 94.0304C42.8332 94.156 42.4765 94.6485 42.0403 95.1252C41.2828 95.953 39.8307 98.0354 38.7329 99.8698C38.451 100.34 37.9692 101.05 37.6627 101.445C37.3562 101.841 36.9154 102.594 36.6832 103.118C36.4516 103.643 36.0287 104.349 35.7438 104.687C35.4593 105.025 34.9919 105.883 34.7054 106.593C34.4188 107.302 34.0068 108.173 33.7894 108.529C33.5721 108.883 33.2144 109.699 32.9935 110.34C32.7731 110.981 32.3118 111.996 31.9694 112.595C31.6265 113.194 31.1704 114.362 30.9551 115.191C30.7398 116.02 30.275 117.39 29.9218 118.236C29.5692 119.082 29.1095 120.604 28.9014 121.619C28.6928 122.634 28.234 124.571 27.8814 125.924C25.9835 133.212 26.1875 150.827 28.2448 157.292C28.4601 157.968 28.7907 159.329 28.9798 160.316C29.1689 161.303 29.6266 162.872 29.9967 163.801C30.3672 164.731 30.7839 165.953 30.9223 166.517C31.1576 167.472 31.7275 168.807 33.7689 173.18C34.2164 174.139 34.6464 175.13 34.7238 175.384C34.8017 175.638 35.1943 176.33 35.5972 176.922C35.9995 177.514 36.5136 178.413 36.7391 178.921C36.9646 179.428 37.4597 180.19 37.8385 180.613C38.2178 181.036 38.5279 181.509 38.5279 181.664C38.5279 181.819 39.0814 182.668 39.758 183.55C40.4345 184.433 40.9881 185.259 40.9881 185.387C40.9881 185.515 41.334 185.949 41.7569 186.353C42.1797 186.756 42.987 187.66 43.5508 188.362C45.4015 190.667 48.0606 193.467 50.8514 196.047C52.3613 197.444 53.984 198.959 54.4581 199.415C54.9322 199.87 55.4483 200.242 55.6052 200.242C55.762 200.242 56.4073 200.681 57.0387 201.216C58.1971 202.199 60.0391 203.454 61.5275 204.277C61.9724 204.522 62.5839 204.888 62.8868 205.089C63.1897 205.291 64.1292 205.812 64.9749 206.247C65.8206 206.682 66.6509 207.163 66.82 207.314C66.9891 207.466 67.6308 207.788 68.2464 208.03C68.862 208.273 69.9229 208.779 70.6041 209.156C71.2853 209.534 72.258 209.954 72.7655 210.091C73.2729 210.228 74.3338 210.644 75.1231 211.016C75.9125 211.388 77.204 211.845 77.9934 212.032C78.7827 212.219 80.3152 212.681 81.3987 213.058C83.129 213.661 85.3206 214.124 88.0391 214.462C88.4902 214.518 89.874 214.748 91.1144 214.972C97.8373 216.186 105.471 216.156 112.026 214.889C112.928 214.714 114.266 214.492 114.999 214.396C118.254 213.965 119.309 213.743 120.944 213.144C121.903 212.792 123.056 212.423 123.507 212.322C125.254 211.932 125.81 211.75 127.197 211.112C127.986 210.749 129.093 210.315 129.657 210.148C130.221 209.981 131.252 209.535 131.948 209.156C132.644 208.778 133.907 208.18 134.753 207.827C135.6 207.475 136.414 207.039 136.562 206.858C136.711 206.677 137.386 206.266 138.063 205.944C140.353 204.856 142.331 203.601 145.192 201.423C145.894 200.889 146.746 200.32 147.086 200.159C147.425 199.999 148.004 199.537 148.372 199.133C148.74 198.728 149.139 198.397 149.259 198.397C149.379 198.397 149.963 197.913 150.558 197.321C151.153 196.729 152.115 195.783 152.696 195.219C153.278 194.656 154.329 193.56 155.032 192.785C155.734 192.01 156.771 190.896 157.334 190.31C159.715 187.833 160.202 187.24 161.972 184.661C162.553 183.815 163.241 182.893 163.502 182.611C163.763 182.329 164.115 181.764 164.286 181.354C164.457 180.945 164.819 180.346 165.09 180.022C165.361 179.698 165.885 178.834 166.254 178.101C166.623 177.368 167.136 176.491 167.393 176.153C167.65 175.815 168.043 175.077 168.266 174.513C168.489 173.949 169.096 172.678 169.614 171.689C170.134 170.7 170.558 169.748 170.558 169.575C170.558 169.401 170.79 168.752 171.073 168.133C171.356 167.514 171.759 166.389 171.968 165.634C172.178 164.878 172.643 163.527 173.002 162.63C173.361 161.734 173.837 159.981 174.06 158.736C174.282 157.49 174.603 155.872 174.771 155.139C175.916 150.154 176.368 144.051 176.071 137.589C175.907 134.034 175.754 133.427 174.684 132.098C174.332 131.659 174.043 131.227 174.043 131.138C174.043 131.049 173.328 130.581 172.454 130.097C170.344 128.93 168.736 128.864 166.663 129.858C160.621 132.756 153.894 132.58 149.151 129.399C148.403 128.897 147.704 128.487 147.598 128.487C147.183 128.487 144.782 125.836 143.676 124.155C140.477 119.297 140.205 111.768 143.117 108.686C147.52 104.026 142.039 95.7464 136.06 98.0252C135.297 98.3158 133.867 98.6935 132.883 98.8642C131.898 99.0354 130.769 99.2865 130.375 99.4223C126.549 100.741 120.174 98.9247 118.693 96.0944C118.545 95.8125 118.171 95.258 117.861 94.8623C116.815 93.5261 115.944 89.9655 115.63 85.7411C115.224 80.2672 112.388 77.6384 107.771 78.4554C105.244 78.9028 104.092 79.828 102.485 82.7033C99.335 88.3377 90.0032 90.5749 84.6958 86.9682C84.2837 86.6878 83.8378 86.4587 83.7051 86.4587C83.5723 86.4587 83.0173 86.041 82.4714 85.53C81.9256 85.019 81.4053 84.5346 81.3156 84.4536C80.6417 83.8437 79.0133 80.4148 78.6694 78.8798C77.6136 74.1731 74.1283 71.7314 69.9978 72.8041ZM163.792 74.8025C158.758 75.6364 158.483 83.8683 163.442 85.3101C169.224 86.9907 173.192 80.3815 168.922 76.1833C167.853 75.1321 165.905 74.3402 165.006 74.5919C164.958 74.6047 164.413 74.6995 163.792 74.8025ZM68.8512 89.7015C69.0706 90.1315 69.4017 90.6092 69.5862 90.763C69.7712 90.9162 70.0664 91.3252 70.2422 91.6717C70.5615 92.2996 71.8039 93.7173 72.7521 94.5358C73.0269 94.7731 73.5922 95.3046 74.0079 95.7167C74.4235 96.1293 75.075 96.6244 75.4558 96.8161C75.8366 97.0083 76.4286 97.4311 76.7715 97.7556C77.1138 98.0805 77.9657 98.57 78.6638 98.8437C79.3618 99.1174 80.1906 99.5243 80.5048 99.7483C83.7615 102.067 97.333 102.357 101.432 100.196C104.863 98.3875 104.672 98.3593 105.978 100.859C107.606 103.974 110.453 107.276 112.641 108.588C113.092 108.858 113.83 109.373 114.281 109.731C114.732 110.09 115.47 110.503 115.921 110.65C116.372 110.796 117.455 111.228 118.327 111.609C120.305 112.476 121.549 112.71 125.044 112.876L127.812 113.008L127.949 115.909C128.177 120.7 129.001 124.863 129.972 126.129C130.059 126.242 130.24 126.749 130.374 127.257C130.508 127.764 131.005 128.779 131.477 129.512C131.95 130.245 132.457 131.12 132.603 131.456C133.093 132.581 138.688 138.533 139.255 138.533C139.401 138.533 139.834 138.857 140.218 139.252C140.602 139.648 141.288 140.153 141.744 140.375C142.2 140.597 143.035 141.083 143.598 141.455C144.162 141.827 145.223 142.347 145.956 142.611C146.689 142.875 147.796 143.32 148.416 143.601C149.68 144.174 150.616 144.339 155.182 144.796C157.979 145.077 160.866 145.068 161.947 144.775C162.872 144.525 162.881 144.82 162.133 151.039C161.953 152.538 161.076 156.364 160.817 156.784C160.769 156.862 160.455 157.997 160.12 159.308C159.784 160.619 159.282 162.085 159.003 162.567C158.725 163.048 158.315 164.042 158.091 164.775C157.867 165.508 157.317 166.753 156.871 167.542C156.424 168.332 155.988 169.2 155.903 169.473C155.817 169.745 155.344 170.558 154.85 171.279C154.356 172.001 153.952 172.721 153.952 172.878C153.952 173.037 153.686 173.469 153.361 173.839C153.036 174.21 152.621 174.836 152.439 175.23C152.257 175.625 151.784 176.363 151.386 176.871C148.703 180.3 148.001 181.162 147.135 182.085C145.059 184.299 143.059 186.237 141.938 187.121C141.294 187.629 140.436 188.376 140.031 188.781C139.625 189.186 138.936 189.731 138.5 189.992C138.064 190.252 137.305 190.813 136.814 191.238C136.323 191.663 135.711 192.074 135.455 192.152C135.198 192.229 134.757 192.502 134.475 192.758C133.926 193.256 131.646 194.501 131.282 194.501C131.161 194.502 130.845 194.732 130.581 195.013C130.317 195.294 129.39 195.798 128.52 196.133C127.651 196.469 126.49 197.021 125.941 197.359C125.391 197.699 124.35 198.126 123.627 198.31C122.904 198.493 121.627 198.955 120.789 199.337C119.952 199.719 118.468 200.176 117.491 200.354C116.515 200.53 115.163 200.849 114.486 201.062C108.507 202.941 93.1906 202.895 87.79 200.981C87.3144 200.813 86.0689 200.519 85.0223 200.327C83.9014 200.121 82.517 199.693 81.6549 199.285C80.8497 198.904 79.6555 198.452 79.0015 198.282C78.3475 198.111 77.6115 197.86 77.366 197.723C75.6029 196.741 75.0211 196.46 74.1078 196.146C73.5389 195.949 72.5051 195.431 71.8111 194.992C71.1171 194.553 70.1023 193.937 69.5559 193.623C68.2618 192.879 67.5078 192.369 65.8365 191.107C65.0805 190.536 64.1256 189.866 63.714 189.616C63.3025 189.367 62.915 189.032 62.853 188.871C62.7915 188.71 62.4363 188.424 62.0642 188.235C61.3927 187.895 60.8248 187.401 58.7214 185.327C58.1212 184.735 57.5318 184.251 57.4124 184.251C57.2924 184.251 57.0623 183.997 56.8998 183.687C56.7379 183.377 55.8517 182.339 54.9317 181.381C54.0112 180.422 52.9461 179.177 52.5648 178.613C52.1834 178.049 51.3044 176.804 50.6115 175.845C49.9185 174.887 49.1631 173.688 48.9319 173.18C48.7013 172.673 48.2061 171.898 47.8315 171.459C47.4573 171.02 47.0422 170.328 46.9099 169.922C46.7777 169.515 46.3159 168.555 45.8838 167.788C45.4512 167.022 44.9587 165.986 44.789 165.486C44.6194 164.986 44.193 163.952 43.8408 163.189C43.4892 162.426 43.0392 161.156 42.8409 160.367C42.6425 159.577 42.152 157.917 41.7512 156.677C41.3499 155.436 40.9153 153.637 40.7846 152.679C40.5616 151.042 40.4407 150.284 39.9153 147.246C39.6165 145.516 39.6098 137.179 39.9056 134.842C40.6503 128.957 41.2341 125.867 41.8876 124.349C42.0664 123.933 42.4365 122.732 42.7097 121.679C42.9834 120.627 43.5287 119.122 43.9218 118.335C44.3149 117.548 44.7598 116.488 44.9095 115.981C45.0597 115.474 45.4815 114.561 45.8474 113.952C46.2134 113.343 46.6685 112.421 46.8592 111.902C47.0499 111.383 47.4091 110.727 47.6572 110.446C47.9058 110.164 48.4583 109.287 48.8853 108.498C49.3122 107.709 49.9139 106.786 50.2225 106.448C50.531 106.109 50.8452 105.627 50.9211 105.376C50.9964 105.125 51.3757 104.54 51.7637 104.075C52.1517 103.611 52.4689 103.148 52.4689 103.046C52.4689 102.649 59.0376 95.6844 60.2693 94.7757C60.585 94.5425 61.7336 93.6137 62.8217 92.7117C63.9098 91.8096 65.2163 90.8312 65.7247 90.537C66.2337 90.2433 66.8933 89.7589 67.1916 89.4606C67.9414 88.7108 68.3776 88.7738 68.8512 89.7015ZM163.634 103.951C160.566 105.53 159.095 110.034 160.914 112.276C161.15 112.566 161.594 113.147 161.901 113.567C163.394 115.606 169.002 115.879 170.325 113.976C170.509 113.711 170.911 113.206 171.218 112.854C172.186 111.741 172.513 108.138 171.774 106.714C170.186 103.657 166.583 102.434 163.634 103.951ZM67.6447 115.181C60.3877 116.602 57.0116 125.709 61.9237 130.613C62.4742 131.163 62.9247 131.699 62.9247 131.804C62.9247 132.052 65.656 133.296 67.1609 133.733C70.1674 134.607 75.1462 132.593 76.5813 129.922C76.793 129.527 77.1302 128.957 77.3301 128.654C80.4699 123.907 76.9186 116.924 70.5211 115.266C69.2023 114.925 68.985 114.918 67.6447 115.181ZM103.005 126.666C102.554 126.768 101.709 127.211 101.127 127.652C100.545 128.092 99.8839 128.552 99.6579 128.673C99.2494 128.892 97.7589 131.009 97.046 132.382C96.1459 134.117 96.6431 138.967 97.8655 140.378C98.1095 140.66 98.4432 141.157 98.6061 141.483C98.7696 141.809 99.2263 142.283 99.6215 142.535C100.017 142.787 100.561 143.233 100.831 143.524C102.62 145.458 108.76 145.251 111.444 143.166C114.84 140.529 115.848 137.09 114.606 132.386C114.383 131.542 114.106 130.82 113.991 130.782C113.876 130.744 113.446 130.255 113.036 129.696C112.625 129.137 112 128.53 111.645 128.346C111.291 128.163 110.678 127.755 110.283 127.44C109.112 126.505 105.445 126.115 103.005 126.666ZM74.0981 152.268C73.647 152.371 72.8167 152.565 72.2529 152.699C71.685 152.834 70.9193 153.21 70.5364 153.544C70.1561 153.874 69.618 154.249 69.3412 154.375C69.0639 154.501 68.6595 154.932 68.4427 155.333C68.2259 155.733 67.8666 156.292 67.6447 156.574C66.0732 158.57 66.2916 164.001 68.0511 166.677C70.6743 170.667 77.5792 172.103 80.656 169.299C80.8831 169.092 81.3597 168.776 81.7149 168.596C82.0706 168.417 82.5739 167.922 82.8333 167.496C83.0926 167.07 83.4642 166.606 83.659 166.464C85.4062 165.191 85.44 157.965 83.7071 156.347C83.4181 156.077 83.0075 155.517 82.7948 155.103C82.5821 154.688 82.2162 154.288 81.9809 154.213C81.7462 154.138 81.2603 153.822 80.9015 153.509C79.7903 152.54 75.9591 151.841 74.0981 152.268ZM107.64 164.172C105.767 164.595 105.396 164.788 103.757 166.194C102.916 166.915 102.453 167.556 101.758 168.963L100.853 170.793V173.078C100.853 176.891 102.285 179.323 105.738 181.374C108.208 182.842 112.52 182.797 114.584 181.282C115.124 180.885 115.658 180.561 115.77 180.561C116.377 180.561 118.343 177.831 118.822 176.324C121.219 168.773 115.379 162.426 107.64 164.172Z" fill="#C24A79"/>
<path fill-rule="evenodd" clip-rule="evenodd" d="M99.0073 34.1866C98.6127 34.2804 97.0904 34.3773 95.6246 34.4019C94.1587 34.427 92.7908 34.5321 92.5852 34.6361C92.3792 34.7402 91.6873 34.8617 91.0476 34.9057C89.8611 34.9872 89.5059 35.0487 88.9616 35.2645C88.7924 35.3322 88.1354 35.4254 87.5014 35.4721C86.8679 35.5192 86.239 35.6258 86.1042 35.7094C85.9689 35.7924 85.0719 35.8939 84.1104 35.9339C83.1489 35.9739 82.2555 36.0943 82.1253 36.2014C81.9951 36.308 81.5656 36.4223 81.171 36.4556C80.7763 36.489 80.3612 36.5776 80.2484 36.6535C80.1357 36.7293 79.6744 36.8575 79.2233 36.939C78.7723 37.02 78.311 37.1619 78.1983 37.2537C78.0855 37.3459 77.7165 37.4741 77.3782 37.5381C73.7438 38.2295 72.6854 38.5094 71.5947 39.0681C71.1201 39.311 70.5963 39.5099 70.4307 39.5099C70.2647 39.5099 70.0074 39.6252 69.8587 39.7661C69.7096 39.9071 69.1883 40.048 68.7009 40.0793C68.213 40.1106 67.5902 40.2823 67.3171 40.4617C67.0434 40.6405 66.8199 40.7251 66.8199 40.6492C66.8199 40.5175 65.5965 41.13 65.3848 41.3678C65.3284 41.4314 64.7287 41.6456 64.0522 41.8445C62.7191 42.2361 60.8903 43.0541 60.0226 43.6481C59.7233 43.8526 59.3532 44.0202 59.1995 44.0202C59.0462 44.0202 58.5762 44.2047 58.1549 44.4308C57.7336 44.6563 57.3866 44.7716 57.383 44.687C57.3794 44.6019 57.2826 44.6942 57.1678 44.8915C57.053 45.0889 56.79 45.2503 56.584 45.2503C56.3779 45.2503 56.0986 45.3841 55.9628 45.5476C55.827 45.7106 55.3775 45.9535 54.9638 46.0868C54.5502 46.22 54.0869 46.4281 53.9347 46.5496C53.7819 46.6705 53.5318 46.7884 53.3781 46.811C52.9998 46.8663 51.8538 47.6951 51.8538 47.9129C51.8538 48.0093 51.5831 48.1472 51.2531 48.22C50.9225 48.2927 50.5422 48.4844 50.4079 48.6464C50.2736 48.8083 50.0717 48.9406 49.9599 48.9406C49.8477 48.9406 49.3162 49.2635 48.7785 49.6581C48.2409 50.0528 47.6684 50.3757 47.5064 50.3757C47.3444 50.3757 46.835 50.6986 46.3737 51.0932C45.9129 51.4879 45.3881 51.8108 45.2077 51.8108C45.0273 51.8108 44.5901 52.0876 44.2359 52.4258C43.8817 52.7641 43.5368 53.0409 43.4691 53.0409C43.401 53.0414 43.0776 53.272 42.75 53.5534C42.4225 53.8353 42.0827 54.066 41.9956 54.066C41.9085 54.066 41.4041 54.4811 40.8741 54.9885C40.3447 55.496 39.8014 55.9111 39.6671 55.9111C39.5328 55.9111 38.9373 56.3724 38.3427 56.9362C37.7487 57.5 37.1536 57.9613 37.0209 57.9613C36.8881 57.9613 36.3459 58.4154 35.8154 58.9705C35.2854 59.5255 34.6683 60.0376 34.4449 60.1083C34.2214 60.1795 33.9882 60.3963 33.9267 60.5901C33.7924 61.0129 32.6766 62.2666 32.4342 62.2666C32.3404 62.2666 32.1179 62.428 31.9396 62.6254C31.7617 62.8227 31.4414 63.1312 31.2277 63.3106C30.5839 63.8524 28.277 66.3146 28.277 66.4597C28.277 66.6775 26.9869 67.7933 26.5902 67.9194C26.3903 67.9829 26.2268 68.1552 26.2268 68.3028C26.2268 68.4499 25.765 69.0183 25.2007 69.5662C24.6364 70.1136 24.1234 70.7225 24.0608 70.9198C23.9983 71.1166 23.4914 71.7583 22.9343 72.3457C22.3771 72.9325 21.9215 73.5168 21.9215 73.6444C21.9215 73.7716 21.6381 74.1467 21.2921 74.4778C20.9461 74.8089 20.4643 75.403 20.2224 75.7976C19.98 76.1923 19.6176 76.6941 19.4167 76.9124C19.2158 77.1312 19.0513 77.3711 19.0513 77.4459C19.0513 77.5208 18.7745 77.8714 18.4362 78.2255C18.0979 78.5797 17.8212 79.0451 17.8212 79.2603C17.8212 79.4756 17.4983 79.9748 17.1036 80.3695C16.709 80.7641 16.3861 81.2336 16.3861 81.413C16.3861 81.5924 15.9607 82.3602 15.4409 83.1192C14.9212 83.8788 14.4143 84.7148 14.3144 84.9777C14.2144 85.2401 13.849 85.808 13.5025 86.2396C13.1555 86.6711 12.8511 87.1642 12.826 87.3359C12.8009 87.5071 12.6809 87.7716 12.56 87.9243C12.4385 88.0765 12.2283 88.5455 12.0925 88.9668C11.9567 89.3881 11.7732 89.7776 11.6845 89.8325C11.4437 89.9811 10.0306 92.9456 10.0306 93.3019C10.0306 93.471 9.93833 93.6668 9.82608 93.7365C9.51446 93.9287 8.26796 96.6554 7.85742 98.0418C7.65753 98.7184 7.44175 99.318 7.37819 99.3744C7.18599 99.5456 6.72317 100.425 6.63757 100.781C6.59298 100.966 6.41001 101.578 6.23113 102.142C6.05174 102.706 5.80162 103.536 5.67554 103.987C5.54945 104.438 5.23219 105.242 4.9708 105.774C4.7094 106.306 4.49516 106.956 4.49516 107.22C4.49516 107.483 4.41111 107.786 4.30809 107.893C4.20507 108 4.02773 108.641 3.91343 109.318C3.55055 111.469 3.43574 111.978 3.26404 112.188C3.1723 112.301 3.03033 112.762 2.94935 113.213C2.86785 113.664 2.73972 114.125 2.66386 114.238C2.58801 114.351 2.49882 114.766 2.465 115.161C2.43117 115.555 2.31328 116.048 2.20258 116.255C2.09187 116.462 1.97245 117.354 1.93708 118.238C1.90172 119.122 1.80741 119.952 1.72694 120.082C1.64647 120.212 1.54243 120.749 1.49527 121.276C1.44812 121.803 1.35125 122.464 1.28001 122.746C1.20876 123.028 1.11599 123.397 1.07345 123.566C1.03091 123.735 0.960182 124.397 0.916103 125.037C0.872025 125.677 0.750553 126.369 0.645995 126.575C0.54195 126.78 0.436879 128.2 0.413303 129.727C0.389213 131.256 0.285681 132.87 0.182148 133.315C-0.0592582 134.358 -0.0613083 139.01 0.179585 140.048C0.28158 140.488 0.389726 142.07 0.419453 143.565C0.44918 145.06 0.557839 146.5 0.660346 146.765C0.762854 147.029 0.879713 147.867 0.919179 148.626C0.958644 149.384 1.08268 150.176 1.19441 150.385C1.30615 150.593 1.41685 151.218 1.44094 151.773C1.46503 152.327 1.57472 152.898 1.68594 153.041C1.79665 153.185 1.90838 154.114 1.93452 155.107C1.96066 156.1 2.07649 157.089 2.1913 157.307C2.30662 157.523 2.44962 158.068 2.50907 158.516C2.56853 158.964 2.71768 159.364 2.84017 159.405C2.96216 159.446 3.00624 159.571 2.93704 159.682C2.86785 159.794 2.95601 160.271 3.13232 160.741C3.4747 161.654 3.59822 162.168 3.90164 163.954C4.00723 164.574 4.18508 165.313 4.29681 165.594C4.40906 165.876 4.5418 166.291 4.59254 166.517C4.72478 167.109 5.1835 168.311 5.41363 168.67C5.52229 168.839 5.63095 169.106 5.65453 169.264C5.67861 169.422 5.77343 169.607 5.86518 169.674C5.95744 169.742 6.05738 170.19 6.08813 170.67C6.11837 171.15 6.41821 172.084 6.75443 172.745C7.09015 173.407 7.36538 174.013 7.36538 174.091C7.36538 174.17 7.50377 174.373 7.6729 174.542C7.84204 174.711 7.98043 175.083 7.98043 175.368C7.98043 175.653 8.11112 176.176 8.27104 176.532C9.09725 178.367 9.42374 179.051 9.60876 179.33C9.7205 179.5 10.0598 180.284 10.3617 181.073C10.6641 181.862 11.1269 182.727 11.3903 182.994C11.6538 183.262 11.8193 183.561 11.7578 183.66C11.6968 183.76 11.7368 183.841 11.8475 183.841C11.9577 183.841 12.1141 184.14 12.1945 184.506C12.3811 185.356 12.9269 186.506 13.1437 186.506C13.2355 186.506 13.3108 186.622 13.3108 186.764C13.3108 186.906 13.4836 187.13 13.6952 187.263C13.9064 187.394 14.1442 187.762 14.2237 188.081C14.3733 188.681 15.261 190.152 15.9745 190.983C16.201 191.246 16.3861 191.628 16.3861 191.832C16.3861 192.036 16.6152 192.421 16.895 192.686C17.1749 192.952 17.4055 193.284 17.4076 193.425C17.4096 193.566 17.5034 193.682 17.6162 193.682C17.7289 193.682 17.8212 193.863 17.8212 194.084C17.8212 194.306 18.0749 194.754 18.385 195.08C18.9934 195.72 19.1635 195.961 20.0051 197.372C20.5571 198.298 21.4253 199.217 21.7482 199.217C21.8436 199.217 21.9215 199.409 21.9215 199.644C21.9215 199.882 22.3715 200.523 22.9368 201.091C23.495 201.653 24.0044 202.278 24.069 202.481C24.1336 202.684 24.5298 203.182 24.9501 203.587C25.3704 203.993 26.3601 205.026 27.1494 205.883C29.5086 208.444 31.3373 210.245 35.6437 214.247C36.0307 214.606 36.4253 214.877 36.5206 214.847C36.616 214.818 36.7477 214.933 36.8128 215.104C36.8779 215.274 37.0568 215.413 37.21 215.413C37.3627 215.413 37.5975 215.617 37.7307 215.866C38.0198 216.407 38.7394 217.037 39.0777 217.047C39.2115 217.05 39.7942 217.515 40.3729 218.078C40.9515 218.642 41.5543 219.104 41.7122 219.104C41.87 219.104 42.3251 219.429 42.7239 219.828C43.1221 220.226 43.4481 220.489 43.4481 220.411C43.4481 220.334 43.6372 220.441 43.8679 220.65C44.099 220.859 44.4358 221.052 44.6162 221.078C44.7971 221.104 45.0001 221.206 45.0677 221.305C45.1354 221.403 45.5321 221.739 45.9493 222.053C46.6115 222.549 46.9857 222.714 47.5961 222.778C47.6786 222.787 48.0784 223.117 48.4848 223.511C48.8913 223.906 49.3541 224.229 49.5135 224.229C49.6729 224.229 49.8036 224.314 49.8036 224.417C49.8036 224.522 50.0804 224.667 50.4186 224.741C50.7569 224.816 51.0337 224.961 51.0337 225.065C51.0337 225.169 51.149 225.256 51.29 225.258C51.4309 225.26 51.7636 225.49 52.029 225.77C52.2945 226.05 52.6405 226.279 52.7979 226.279C52.9552 226.279 53.0839 226.354 53.0839 226.447C53.0839 226.539 53.5923 226.775 54.214 226.97C54.8357 227.166 55.5046 227.49 55.7004 227.69C56.2216 228.221 57.81 228.984 58.1344 228.859C58.2882 228.8 58.4143 228.831 58.4143 228.928C58.4143 229.025 58.6377 229.161 58.9109 229.23C59.1841 229.298 59.6915 229.593 60.0385 229.885C60.3855 230.177 60.6694 230.363 60.6694 230.298C60.6694 230.234 61.0364 230.372 61.4854 230.606C61.9339 230.84 62.4172 230.993 62.5586 230.946C62.7006 230.898 63.5068 231.213 64.351 231.645C65.1951 232.076 65.9962 232.43 66.131 232.43C66.2653 232.43 66.4114 232.536 66.4545 232.666C66.498 232.796 66.8517 232.916 67.2407 232.932C67.6292 232.949 68.1489 233.073 68.3954 233.209C68.6415 233.344 69.0131 233.455 69.2211 233.455C69.4287 233.455 69.8039 233.598 70.0545 233.774C70.3052 233.949 70.5102 234.03 70.5102 233.954C70.5102 233.877 70.6578 233.937 70.8377 234.086C71.0176 234.236 71.3564 234.387 71.5906 234.423C71.8243 234.459 72.1411 234.592 72.2943 234.719C72.4476 234.846 73.141 234.982 73.8355 235.022C74.53 235.061 75.1497 235.163 75.2132 235.248C75.2763 235.333 75.5587 235.435 75.8406 235.474C76.1225 235.514 76.411 235.64 76.4818 235.754C76.5525 235.867 76.8754 235.977 77.1993 235.997C77.5232 236.017 77.9897 236.145 78.2362 236.281C78.4822 236.418 79.005 236.53 79.3976 236.53C79.7902 236.53 80.1464 236.634 80.189 236.761C80.2356 236.902 81.0218 237.028 82.2012 237.082C83.2657 237.132 84.1842 237.238 84.2426 237.317C84.3011 237.397 84.6716 237.491 85.0663 237.528C85.4609 237.565 85.8761 237.653 85.9889 237.723C86.2672 237.896 86.6357 237.968 87.7863 238.072C88.324 238.12 88.9236 238.237 89.1189 238.331C89.3142 238.426 90.1199 238.528 90.9092 238.559C91.6985 238.59 92.432 238.699 92.5391 238.802C92.8031 239.057 112.395 239.05 112.651 238.796C112.758 238.69 113.569 238.584 114.453 238.561C115.338 238.538 116.436 238.39 116.894 238.232C117.352 238.075 117.857 237.995 118.016 238.056C118.175 238.117 118.554 238.038 118.858 237.881C119.162 237.724 119.78 237.569 120.229 237.537C120.679 237.506 121.195 237.408 121.377 237.321C121.559 237.233 122.458 237.123 123.375 237.076C124.292 237.03 125.158 236.895 125.3 236.778C125.442 236.661 125.834 236.525 126.172 236.478C126.51 236.43 127.048 236.283 127.368 236.152C127.687 236.02 128.027 235.96 128.123 236.019C128.218 236.078 128.355 236.031 128.427 235.915C128.499 235.798 128.644 235.756 128.749 235.821C128.854 235.886 128.94 235.841 128.94 235.722C128.94 235.603 129.176 235.505 129.465 235.505C129.755 235.505 130.18 235.404 130.411 235.28C130.641 235.157 131.299 235.032 131.874 235.003C132.448 234.974 132.953 234.844 132.996 234.714C133.039 234.585 133.228 234.48 133.416 234.481C133.92 234.482 135.705 233.81 135.705 233.619C135.705 233.528 135.896 233.455 136.128 233.455C136.362 233.455 136.739 233.355 136.968 233.232C137.196 233.11 137.668 232.974 138.015 232.93C138.363 232.886 138.702 232.761 138.769 232.653C138.836 232.545 139.12 232.423 139.399 232.382C139.948 232.302 140.864 231.858 141.044 231.584C141.106 231.491 141.36 231.383 141.611 231.345C141.861 231.307 142.168 231.174 142.293 231.049C142.418 230.924 142.644 230.869 142.796 230.927C143.06 231.029 145.788 229.804 145.915 229.527C145.95 229.453 146.533 229.226 147.212 229.022C147.891 228.819 148.671 228.429 148.944 228.155C149.218 227.882 149.441 227.731 149.441 227.82C149.441 227.91 149.603 227.843 149.8 227.672C149.997 227.5 150.62 227.194 151.184 226.991C152.171 226.635 153.486 225.816 153.79 225.367C153.871 225.249 154.009 225.149 154.098 225.146C154.49 225.133 156.648 223.975 156.743 223.727C156.801 223.576 157.304 223.236 157.86 222.972C158.417 222.708 158.872 222.422 158.872 222.336C158.872 222.249 158.987 222.179 159.128 222.179C159.269 222.178 159.652 221.948 159.98 221.666C160.308 221.384 160.703 221.154 160.858 221.154C161.013 221.154 161.193 221.016 161.257 220.847C161.322 220.679 161.463 220.595 161.571 220.662C161.679 220.729 162.127 220.405 162.567 219.944C163.006 219.482 163.505 219.104 163.675 219.104C163.846 219.104 164.507 218.619 165.146 218.027C165.785 217.435 166.374 216.969 166.456 216.992C166.537 217.015 167.056 216.613 167.607 216.099C168.159 215.585 168.887 214.972 169.225 214.737C170.462 213.879 172.813 211.545 172.813 211.175C172.813 211.041 173.021 210.868 173.274 210.791C173.778 210.638 174.658 209.906 174.658 209.639C174.658 209.37 175.333 208.661 175.494 208.76C175.7 208.887 176.913 207.47 176.913 207.103C176.913 206.938 177.04 206.803 177.195 206.803C177.35 206.803 177.927 206.331 178.477 205.754C179.026 205.178 179.669 204.509 179.905 204.268C180.141 204.027 180.553 203.507 180.821 203.112C181.088 202.718 181.679 201.995 182.134 201.508C182.589 201.02 182.997 200.522 183.039 200.402C183.124 200.165 183.659 199.521 184.55 198.584C184.86 198.258 185.114 197.822 185.114 197.617C185.114 197.412 185.377 197.049 185.699 196.811C186.021 196.573 186.531 195.908 186.831 195.333C187.131 194.758 187.56 194.105 187.783 193.882C188.007 193.659 188.189 193.338 188.189 193.169C188.189 193 188.274 192.862 188.378 192.862C188.482 192.862 188.624 192.598 188.695 192.275C188.766 191.953 189.101 191.423 189.441 191.098C189.78 190.773 190.35 189.907 190.708 189.173C191.067 188.439 191.56 187.619 191.805 187.35C192.05 187.081 192.342 186.665 192.453 186.427C193.536 184.118 193.799 183.526 193.76 183.478C193.736 183.447 193.932 183.189 194.197 182.903C194.462 182.618 194.841 181.84 195.041 181.176C195.24 180.511 195.463 179.939 195.537 179.905C195.612 179.871 195.962 179.243 196.316 178.51C196.88 177.345 197.129 176.651 197.325 175.699C197.353 175.562 197.578 175.167 197.825 174.821C198.071 174.474 198.319 173.894 198.377 173.532C198.434 173.169 198.565 172.82 198.67 172.755C198.774 172.691 198.905 172.278 198.962 171.838C199.018 171.398 199.154 170.948 199.265 170.838C199.375 170.728 199.465 170.469 199.465 170.262C199.465 170.055 199.602 169.676 199.77 169.42C200.251 168.687 200.936 166.598 200.998 165.678C201.03 165.218 201.159 164.647 201.285 164.411C201.412 164.175 201.515 163.843 201.515 163.673C201.515 163.504 201.62 163.106 201.749 162.789C201.878 162.472 202.002 162.073 202.026 161.904C202.105 161.328 202.578 159.753 202.792 159.351C202.91 159.13 203.044 158.218 203.089 157.324C203.134 156.429 203.244 155.549 203.333 155.367C203.422 155.185 203.519 154.621 203.549 154.114C203.58 153.606 203.693 153.136 203.802 153.069C203.91 153.002 204.034 152.476 204.077 151.9C204.12 151.325 204.241 150.688 204.346 150.485C204.451 150.282 204.554 149.378 204.575 148.476C204.597 147.574 204.701 146.748 204.807 146.641C205.059 146.387 205.067 126.794 204.815 126.529C204.713 126.422 204.582 125.642 204.523 124.796C204.464 123.951 204.315 122.86 204.192 122.374C204.068 121.888 204.017 121.409 204.078 121.312C204.138 121.213 204.059 120.781 203.903 120.351C203.414 119.009 203.122 117.48 203.118 116.246C203.117 115.592 202.986 114.79 202.828 114.463C202.67 114.136 202.54 113.599 202.54 113.27C202.54 112.942 202.428 112.472 202.292 112.226C202.155 111.979 202.027 111.513 202.007 111.189C201.987 110.865 201.877 110.542 201.764 110.471C201.65 110.401 201.525 110.112 201.485 109.83C201.445 109.548 201.343 109.266 201.258 109.203C201.173 109.139 201.072 108.52 201.032 107.825C200.993 107.131 200.857 106.437 200.729 106.284C200.602 106.131 200.469 105.814 200.433 105.58C200.398 105.346 200.246 105.007 200.096 104.827C199.947 104.647 199.884 104.5 199.957 104.5C200.03 104.5 199.954 104.292 199.789 104.039C199.624 103.785 199.442 103.315 199.385 102.995C199.328 102.676 199.182 102.295 199.062 102.15C198.941 102.005 198.896 101.75 198.96 101.582C199.024 101.415 198.592 100.273 198 99.0448C197.407 97.8168 196.945 96.699 196.971 96.5611C197.031 96.2541 196.274 94.5519 195.744 93.8011C195.531 93.4987 195.217 92.8529 195.047 92.366C194.539 90.9083 193.97 89.7981 193.672 89.6838C193.518 89.6249 193.274 89.1749 193.128 88.6839C192.761 87.4384 191.869 85.8434 191.539 85.8434C191.388 85.8434 191.264 85.6589 191.264 85.4334C191.264 85.2078 191.179 85.0233 191.076 85.0233C190.972 85.0233 190.826 84.7466 190.752 84.4083C190.677 84.07 190.532 83.7932 190.428 83.7932C190.324 83.7932 190.239 83.6502 190.239 83.4755C190.239 83.3007 189.916 82.8256 189.522 82.4191C189.127 82.0127 188.797 81.6252 188.788 81.558C188.691 80.8015 188.071 79.7139 187.728 79.6996C187.643 79.696 187.574 79.5545 187.574 79.3854C187.574 79.2163 187.482 79.0779 187.369 79.0779C187.256 79.0779 187.164 78.9677 187.164 78.8329C187.164 78.5505 186.254 77.1661 185.575 76.4147C185.321 76.1338 185.114 75.8068 185.114 75.6879C185.114 75.569 184.653 74.9724 184.089 74.3625C183.525 73.7526 183.061 73.157 183.057 73.0391C183.047 72.725 182.397 71.9992 181.876 71.7204C181.628 71.5871 181.424 71.3426 181.424 71.1776C181.424 71.0126 181.331 70.8772 181.219 70.8772C181.106 70.8772 181.014 70.7686 181.014 70.6358C181.014 70.3791 180.373 69.6666 177.99 67.2726C177.172 66.4515 176.503 65.7129 176.503 65.6309C176.503 65.451 173.706 62.6766 173.525 62.6766C173.455 62.6766 172.778 62.0539 172.02 61.2928C169.99 59.2529 168.553 57.9613 168.314 57.9613C168.198 57.9613 167.667 57.5 167.135 56.9362C166.521 56.2853 165.996 55.9111 165.697 55.9111C165.439 55.9111 165.227 55.826 165.227 55.722C165.227 55.4206 164.015 54.2894 163.309 53.9337C162.955 53.7543 162.457 53.4181 162.203 53.1859C161.95 52.9543 161.742 52.822 161.742 52.8928C161.742 52.9635 161.498 52.7954 161.2 52.5186C160.596 51.9594 159.571 51.4008 159.148 51.4008C158.996 51.4008 158.872 51.2957 158.872 51.1671C158.872 50.8805 158.254 50.3911 157.88 50.3824C157.653 50.3767 155.945 49.2994 155.592 48.9385C155.535 48.8811 154.959 48.57 154.31 48.2476C153.662 47.9252 153.131 47.5803 153.131 47.4809C153.131 47.382 152.998 47.3005 152.834 47.3005C152.671 47.3005 152.443 47.139 152.328 46.9417C152.213 46.7444 152.116 46.6629 152.113 46.7602C152.109 46.8576 151.897 46.8007 151.642 46.6331C151.387 46.466 150.879 46.2636 150.514 46.1836C150.15 46.1032 149.851 45.9474 149.851 45.8372C149.851 45.7265 149.77 45.6865 149.671 45.7475C149.572 45.809 149.272 45.647 149.004 45.3882C148.428 44.8295 146.44 43.9505 146.153 44.1273C146.043 44.1955 145.898 44.1073 145.83 43.9321C145.763 43.7563 145.638 43.6563 145.551 43.7096C145.465 43.7629 145.129 43.5779 144.804 43.2986C144.479 43.0192 144.167 42.7835 144.111 42.7747C143.521 42.683 143.151 42.5656 142.543 42.2771C142.149 42.09 141.698 41.987 141.54 42.0474C141.381 42.1079 141.111 42.0167 140.939 41.844C140.766 41.6718 140.623 41.6067 140.619 41.6989C140.616 41.7917 140.519 41.7061 140.404 41.5088C140.289 41.3114 140.051 41.15 139.876 41.15C139.701 41.15 139.087 40.9137 138.512 40.6252C137.938 40.3366 137.072 40.0829 136.588 40.0614C136.104 40.0398 135.707 39.9712 135.707 39.9081C135.705 39.7323 133.223 38.7298 131.707 38.2921C131.256 38.1619 130.426 37.9748 129.862 37.8774C128.068 37.5658 127.626 37.4607 126.74 37.1342C126.264 36.9584 125.787 36.8677 125.682 36.9333C125.576 36.9989 125.457 36.9549 125.417 36.8354C125.377 36.7165 125.024 36.5735 124.631 36.5177C124.238 36.4618 123.658 36.3152 123.342 36.1912C123.026 36.0677 122.012 35.9564 121.087 35.9441C120.163 35.9318 119.299 35.8216 119.169 35.6991C119.038 35.5761 118.449 35.4588 117.86 35.4377C117.271 35.4172 116.686 35.3358 116.56 35.2568C116.244 35.059 115.906 35.0031 114.486 34.9144C113.809 34.8719 113.04 34.7535 112.775 34.6505C112.51 34.5475 111.055 34.4388 109.542 34.4086C108.028 34.3778 106.492 34.2681 106.129 34.1641C105.324 33.9334 100.004 33.9504 99.0073 34.1866ZM137.607 68.2366C139.887 68.824 142.471 70.663 142.471 71.6988C142.471 71.826 142.692 72.2232 142.962 72.5825C144.515 74.6444 144.505 78.3444 142.942 80.4617C142.671 80.8282 142.315 81.4494 142.151 81.842C141.957 82.3069 141.58 82.6954 141.072 82.9547C140.642 83.1741 140.165 83.5052 140.01 83.6907C138.82 85.1253 133.638 85.5133 131.792 84.3058C129.25 82.6426 128.826 82.3043 128.514 81.6893C128.329 81.3243 127.874 80.4258 127.502 79.6929C126.404 77.5254 126.485 74.463 127.682 72.8905C127.882 72.6291 128.161 72.1253 128.303 71.7711C128.766 70.6143 130.927 68.9229 132.541 68.4529C135.206 67.677 135.403 67.6682 137.607 68.2366ZM74.3322 72.9387C76.2552 73.6696 78.0532 76.1323 78.6693 78.8795C79.0132 80.4146 80.6415 83.8435 81.3155 84.4534C81.4052 84.5344 81.9254 85.0187 82.4713 85.5297C83.0171 86.0407 83.5722 86.4584 83.705 86.4584C83.8377 86.4584 84.2836 86.6875 84.6957 86.9679C90.003 90.5746 99.3348 88.3374 102.484 82.7031C104.092 79.8277 105.244 78.9026 107.771 78.4551C112.388 77.6382 115.224 80.267 115.63 85.7409C115.944 89.9652 116.814 93.5258 117.861 94.862C118.171 95.2577 118.545 95.8123 118.693 96.0942C120.174 98.9244 126.549 100.74 130.375 99.4221C130.769 99.2863 131.898 99.0351 132.883 98.8639C133.867 98.6932 135.297 98.3155 136.06 98.0249C142.039 95.7462 147.52 104.026 143.117 108.686C140.205 111.768 140.477 119.297 143.676 124.155C144.782 125.836 147.182 128.487 147.598 128.487C147.704 128.487 148.403 128.897 149.151 129.398C153.894 132.58 160.621 132.756 166.662 129.858C168.736 128.863 170.344 128.93 172.454 130.097C173.328 130.58 174.043 131.049 174.043 131.138C174.043 131.227 174.332 131.659 174.684 132.097C175.754 133.427 175.907 134.034 176.071 137.589C176.368 144.05 175.916 150.154 174.771 155.139C174.603 155.872 174.282 157.49 174.059 158.736C173.836 159.981 173.361 161.733 173.002 162.63C172.643 163.526 172.177 164.878 171.968 165.633C171.759 166.389 171.356 167.513 171.073 168.133C170.789 168.752 170.558 169.401 170.558 169.574C170.558 169.748 170.133 170.699 169.614 171.689C169.096 172.678 168.489 173.949 168.266 174.513C168.043 175.076 167.65 175.814 167.393 176.153C167.136 176.491 166.623 177.367 166.254 178.1C165.885 178.833 165.361 179.698 165.09 180.021C164.819 180.345 164.457 180.945 164.286 181.354C164.115 181.764 163.763 182.329 163.502 182.611C163.241 182.893 162.553 183.815 161.972 184.661C160.201 187.24 159.715 187.833 157.334 190.31C156.77 190.896 155.734 192.01 155.031 192.785C154.329 193.56 153.278 194.655 152.696 195.219C152.115 195.783 151.153 196.729 150.558 197.321C149.963 197.913 149.379 198.397 149.259 198.397C149.139 198.397 148.74 198.728 148.372 199.132C148.004 199.537 147.425 199.999 147.086 200.159C146.746 200.319 145.894 200.888 145.192 201.423C142.331 203.601 140.353 204.856 138.063 205.944C137.386 206.265 136.711 206.676 136.562 206.857C136.413 207.038 135.6 207.475 134.753 207.827C133.907 208.179 132.644 208.777 131.948 209.156C131.252 209.534 130.221 209.981 129.657 210.148C129.093 210.315 127.986 210.749 127.197 211.111C125.81 211.75 125.254 211.932 123.507 212.322C123.056 212.423 121.902 212.792 120.944 213.144C119.309 213.742 118.254 213.965 114.999 214.395C114.266 214.492 112.928 214.714 112.026 214.889C105.471 216.156 97.8372 216.186 91.1142 214.971C89.8739 214.747 88.49 214.518 88.039 214.462C85.3205 214.124 83.1289 213.661 81.3985 213.058C80.315 212.68 78.7826 212.219 77.9932 212.031C77.2039 211.845 75.9123 211.388 75.123 211.016C74.3337 210.644 73.2728 210.228 72.7653 210.091C72.2579 209.954 71.2851 209.533 70.604 209.156C69.9228 208.779 68.8618 208.273 68.2463 208.03C67.6307 207.788 66.989 207.466 66.8199 207.314C66.6508 207.162 65.8204 206.682 64.9748 206.247C64.1291 205.812 63.1896 205.291 62.8867 205.089C62.5838 204.888 61.9723 204.522 61.5274 204.276C60.039 203.454 58.1969 202.198 57.0386 201.216C56.4072 200.68 55.7619 200.242 55.605 200.242C55.4482 200.242 54.9321 199.869 54.458 199.414C53.9839 198.959 52.3612 197.444 50.8512 196.047C48.0605 193.466 45.4014 190.667 43.5506 188.362C42.9868 187.66 42.1796 186.756 41.7567 186.352C41.3339 185.949 40.9879 185.514 40.9879 185.387C40.9879 185.259 40.4344 184.432 39.7578 183.55C39.0813 182.668 38.5277 181.819 38.5277 181.664C38.5277 181.509 38.2177 181.036 37.8384 180.612C37.4596 180.189 36.9645 179.428 36.739 178.92C36.5135 178.413 35.9994 177.514 35.597 176.922C35.1942 176.33 34.8016 175.638 34.7237 175.384C34.6463 175.13 34.2163 174.138 33.7688 173.18C31.7274 168.807 31.1574 167.472 30.9222 166.517C30.7838 165.953 30.3671 164.731 29.9965 163.801C29.6265 162.871 29.1688 161.303 28.9797 160.316C28.7905 159.329 28.4599 157.968 28.2447 157.291C26.1873 150.827 25.9834 133.212 27.8813 125.924C28.2339 124.571 28.6926 122.633 28.9012 121.619C29.1093 120.604 29.5691 119.082 29.9217 118.236C30.2748 117.39 30.7397 116.02 30.955 115.191C31.1702 114.362 31.6264 113.193 31.9693 112.594C32.3117 111.996 32.773 110.981 32.9934 110.34C33.2143 109.698 33.572 108.883 33.7893 108.528C34.0066 108.173 34.4187 107.302 34.7052 106.593C34.9917 105.883 35.4592 105.025 35.7436 104.687C36.0286 104.349 36.4514 103.642 36.6831 103.118C36.9153 102.594 37.3561 101.841 37.6626 101.445C37.9691 101.049 38.4509 100.34 38.7328 99.8695C39.8306 98.0351 41.2826 95.9527 42.0402 95.125C42.4763 94.6483 42.8331 94.1557 42.8331 94.0302C42.8331 93.9046 43.2918 93.3259 43.853 92.7442C44.4137 92.1625 45.2912 91.225 45.8022 90.6612C46.715 89.6541 47.713 88.6178 48.2983 88.0688C48.4613 87.9161 48.8564 87.5143 49.1763 87.176C49.4961 86.8377 50.2326 86.1458 50.8133 85.6384C51.394 85.131 52.2761 84.3468 52.7733 83.8957C54.9341 81.9353 56.6158 80.6437 59.0293 79.0917C59.5367 78.7657 60.2286 78.2727 60.5669 77.9959C60.9052 77.7196 61.5971 77.2855 62.1045 77.0313C62.6119 76.7766 63.4669 76.2558 64.0045 75.8735C64.5422 75.4911 65.4335 75.0068 65.986 74.7966C66.538 74.587 67.436 74.1124 67.9813 73.7429C69.6542 72.6081 72.5116 72.2462 74.3322 72.9387ZM166.421 74.7992C170.317 75.4778 172.021 80.7969 169.325 83.867C167.45 86.0028 163.642 86.1806 161.482 84.2335C158.429 81.4807 159.908 75.4455 163.792 74.8023C164.412 74.6992 164.958 74.6044 165.005 74.5916C165.053 74.5783 165.689 74.6716 166.421 74.7992ZM67.1915 89.4604C66.8932 89.7587 66.2335 90.243 65.7246 90.5367C65.2162 90.8309 63.9097 91.8093 62.8216 92.7114C61.7335 93.6135 60.5849 94.5422 60.2691 94.7754C59.0375 95.6841 52.4688 102.649 52.4688 103.046C52.4688 103.148 52.1515 103.611 51.7636 104.075C51.3756 104.539 50.9963 105.125 50.9209 105.376C50.8451 105.627 50.5309 106.109 50.2223 106.447C49.9138 106.786 49.3121 107.708 48.8851 108.498C48.4582 109.287 47.9057 110.163 47.6571 110.445C47.409 110.727 47.0497 111.383 46.8591 111.901C46.6684 112.421 46.2133 113.343 45.8473 113.952C45.4814 114.56 45.0595 115.473 44.9094 115.981C44.7597 116.488 44.3148 117.548 43.9217 118.335C43.5286 119.122 42.9832 120.627 42.7096 121.679C42.4364 122.732 42.0663 123.933 41.8874 124.348C41.234 125.867 40.6502 128.957 39.9055 134.842C39.6097 137.178 39.6164 145.516 39.9152 147.246C40.4405 150.283 40.5615 151.041 40.7845 152.678C40.9152 153.637 41.3498 155.436 41.7511 156.676C42.1519 157.917 42.6424 159.577 42.8408 160.367C43.0391 161.156 43.4891 162.426 43.8407 163.189C44.1928 163.952 44.6193 164.986 44.7889 165.485C44.9586 165.986 45.4511 167.022 45.8837 167.788C46.3158 168.555 46.7776 169.515 46.9098 169.921C47.042 170.328 47.4572 171.02 47.8314 171.459C48.206 171.898 48.7011 172.673 48.9318 173.18C49.1629 173.687 49.9184 174.887 50.6114 175.845C51.3043 176.804 52.1833 178.049 52.5646 178.613C52.946 179.177 54.011 180.422 54.9316 181.381C55.8516 182.339 56.7377 183.377 56.8997 183.687C57.0622 183.997 57.2923 184.251 57.4122 184.251C57.5317 184.251 58.1211 184.735 58.7213 185.327C60.8247 187.401 61.3926 187.894 62.064 188.235C62.4361 188.423 62.7913 188.709 62.8528 188.87C62.9149 189.031 63.3023 189.367 63.7139 189.616C64.1255 189.866 65.0803 190.536 65.8363 191.107C67.5077 192.368 68.2617 192.878 69.5558 193.623C70.1022 193.937 71.117 194.553 71.811 194.992C72.505 195.43 73.5388 195.949 74.1077 196.145C75.021 196.46 75.6028 196.741 77.3659 197.723C77.6114 197.86 78.3474 198.111 79.0014 198.282C79.6554 198.452 80.8496 198.903 81.6548 199.285C82.5169 199.693 83.9013 200.121 85.0222 200.327C86.0688 200.518 87.3143 200.813 87.7899 200.981C93.1905 202.894 108.507 202.941 114.486 201.062C115.163 200.849 116.515 200.53 117.491 200.353C118.467 200.176 119.952 199.719 120.789 199.337C121.627 198.955 122.904 198.493 123.627 198.309C124.35 198.126 125.391 197.698 125.941 197.359C126.49 197.02 127.651 196.468 128.52 196.133C129.39 195.797 130.317 195.293 130.581 195.013C130.845 194.731 131.16 194.502 131.282 194.501C131.646 194.501 133.926 193.256 134.475 192.757C134.757 192.502 135.198 192.229 135.455 192.152C135.711 192.074 136.323 191.663 136.814 191.237C137.305 190.812 138.064 190.252 138.5 189.991C138.936 189.731 139.625 189.186 140.03 188.781C140.436 188.375 141.294 187.628 141.938 187.121C143.059 186.237 145.058 184.299 147.135 182.085C148.001 181.161 148.703 180.3 151.386 176.87C151.783 176.363 152.257 175.625 152.439 175.23C152.62 174.836 153.036 174.21 153.361 173.839C153.686 173.469 153.952 173.036 153.952 172.878C153.952 172.72 154.355 172.001 154.849 171.279C155.344 170.558 155.817 169.745 155.903 169.472C155.988 169.2 156.423 168.331 156.87 167.542C157.317 166.753 157.867 165.507 158.091 164.774C158.315 164.041 158.725 163.048 159.003 162.566C159.281 162.085 159.784 160.619 160.119 159.308C160.455 157.997 160.769 156.861 160.816 156.784C161.076 156.364 161.953 152.538 162.133 151.038C162.881 144.82 162.872 144.525 161.947 144.775C160.866 145.068 157.979 145.076 155.182 144.796C150.616 144.338 149.68 144.173 148.416 143.601C147.796 143.32 146.689 142.875 145.956 142.611C145.223 142.347 144.162 141.826 143.598 141.454C143.034 141.082 142.2 140.596 141.744 140.375C141.288 140.153 140.601 139.648 140.218 139.252C139.834 138.856 139.401 138.532 139.255 138.532C138.688 138.532 133.093 132.58 132.603 131.456C132.457 131.12 131.95 130.245 131.477 129.512C131.005 128.779 130.508 127.764 130.374 127.257C130.239 126.749 130.059 126.242 129.972 126.129C129.001 124.863 128.176 120.7 127.949 115.908L127.812 113.008L125.044 112.876C121.549 112.71 120.305 112.475 118.326 111.609C117.455 111.227 116.372 110.795 115.921 110.649C115.47 110.503 114.732 110.09 114.281 109.731C113.83 109.373 113.092 108.857 112.641 108.587C110.453 107.276 107.606 103.973 105.978 100.859C104.671 98.3591 104.863 98.3873 101.432 100.196C97.3329 102.357 83.7614 102.067 80.5047 99.7481C80.1905 99.5241 79.3617 99.1171 78.6636 98.8434C77.9656 98.5697 77.1137 98.0803 76.7713 97.7553C76.4285 97.4309 75.8365 97.008 75.4557 96.8158C75.0748 96.6241 74.4234 96.129 74.0077 95.7164C73.5921 95.3043 73.0267 94.7728 72.752 94.5355C71.8038 93.717 70.5614 92.2993 70.2421 91.6715C70.0663 91.325 69.7711 90.916 69.5861 90.7627C69.4016 90.609 69.0705 90.1313 68.8511 89.7013C68.3775 88.7736 67.9413 88.7105 67.1915 89.4604ZM168.812 103.899C172.095 105.45 173.408 110.337 171.217 112.854C170.911 113.206 170.509 113.711 170.325 113.976C169.002 115.879 163.394 115.606 161.901 113.567C161.594 113.146 161.15 112.566 160.914 112.276C159.784 110.883 160.036 107.559 161.404 105.815C163.349 103.337 166.112 102.622 168.812 103.899ZM70.5209 115.266C76.9184 116.924 80.4698 123.907 77.33 128.654C77.1301 128.957 76.7929 129.527 76.5812 129.922C75.1461 132.593 70.1673 134.607 67.1607 133.733C65.6559 133.295 62.9246 132.052 62.9246 131.804C62.9246 131.699 62.4741 131.163 61.9236 130.613C57.0114 125.709 60.3875 116.602 67.6446 115.181C68.9849 114.918 69.2022 114.924 70.5209 115.266ZM108.643 126.657C109.15 126.773 109.889 127.125 110.283 127.44C110.678 127.755 111.291 128.163 111.645 128.346C112 128.53 112.625 129.137 113.036 129.696C113.446 130.255 113.876 130.743 113.991 130.782C114.106 130.82 114.382 131.542 114.605 132.386C116.49 139.516 112.753 144.755 105.773 144.769C103.103 144.775 101.649 144.409 100.83 143.524C100.561 143.232 100.017 142.787 99.6214 142.535C99.2262 142.283 98.7695 141.809 98.606 141.483C98.443 141.157 98.1094 140.659 97.8654 140.378C96.643 138.967 96.1458 134.117 97.0459 132.382C97.7588 131.008 99.2493 128.892 99.6577 128.673C99.8838 128.552 100.545 128.092 101.127 127.652C102.642 126.505 106.016 126.058 108.643 126.657ZM78.8763 152.597C79.719 152.807 80.5001 153.158 80.9014 153.508C81.2602 153.821 81.746 154.138 81.9808 154.213C82.216 154.287 82.582 154.688 82.7947 155.102C83.0074 155.517 83.418 156.077 83.707 156.347C85.4399 157.964 85.4061 165.191 83.6588 166.464C83.4641 166.606 83.0925 167.07 82.8331 167.496C82.5738 167.921 82.0705 168.416 81.7148 168.596C81.3596 168.776 80.8829 169.092 80.6559 169.299C78.4366 171.321 73.5203 171.16 70.298 168.958C66.7353 166.524 65.2541 159.611 67.6446 156.574C67.8665 156.292 68.2258 155.733 68.4426 155.333C68.6594 154.932 69.0638 154.501 69.3411 154.375C69.6178 154.249 70.156 153.874 70.5363 153.544C70.9192 153.21 71.6849 152.833 72.2528 152.698C72.8166 152.565 73.6469 152.371 74.0979 152.267C75.1507 152.026 77.1332 152.163 78.8763 152.597ZM112.425 164.163C119.067 165.632 121.704 174.034 117.151 179.22C116.503 179.957 115.882 180.561 115.77 180.561C115.658 180.561 115.124 180.885 114.584 181.282C112.52 182.796 108.208 182.841 105.737 181.374C102.285 179.323 100.852 176.89 100.852 173.078V170.793L101.758 168.962C103.805 164.821 107.625 163.102 112.425 164.163Z" fill="#FFEC9D"/>
<path d="M218.36 129H430.01V180H218.36V129Z" fill="#FFEC9D"/>
<path d="M250.328 97.4002V131H240.824V117.896H227.864V131H218.36V97.4002H227.864V110.024H240.824V97.4002H250.328ZM273.976 131.672C270.424 131.672 267.224 130.92 264.376 129.416C261.56 127.912 259.336 125.832 257.704 123.176C256.104 120.52 255.304 117.528 255.304 114.2C255.304 110.872 256.104 107.88 257.704 105.224C259.336 102.568 261.56 100.488 264.376 98.9842C267.224 97.4802 270.424 96.7282 273.976 96.7282C277.528 96.7282 280.712 97.4802 283.528 98.9842C286.376 100.488 288.6 102.568 290.2 105.224C291.832 107.88 292.648 110.872 292.648 114.2C292.648 117.528 291.832 120.52 290.2 123.176C288.6 125.832 286.376 127.912 283.528 129.416C280.712 130.92 277.528 131.672 273.976 131.672ZM273.976 123.8C275.672 123.8 277.208 123.4 278.584 122.6C279.96 121.8 281.048 120.68 281.848 119.24C282.648 117.768 283.048 116.088 283.048 114.2C283.048 112.312 282.648 110.648 281.848 109.208C281.048 107.736 279.96 106.6 278.584 105.8C277.208 105 275.672 104.6 273.976 104.6C272.28 104.6 270.744 105 269.368 105.8C267.992 106.6 266.904 107.736 266.104 109.208C265.304 110.648 264.904 112.312 264.904 114.2C264.904 116.088 265.304 117.768 266.104 119.24C266.904 120.68 267.992 121.8 269.368 122.6C270.744 123.4 272.28 123.8 273.976 123.8ZM304.309 104.936H293.989V97.4002H324.085V104.936H313.813V131H304.309V104.936ZM342.986 97.4002C346.026 97.4002 348.666 97.9122 350.906 98.9362C353.146 99.9282 354.874 101.368 356.09 103.256C357.306 105.112 357.914 107.304 357.914 109.832C357.914 112.36 357.306 114.552 356.09 116.408C354.874 118.264 353.146 119.704 350.906 120.728C348.666 121.72 346.026 122.216 342.986 122.216H337.13V131H327.626V97.4002H342.986ZM342.41 114.728C344.362 114.728 345.834 114.312 346.826 113.48C347.818 112.616 348.314 111.4 348.314 109.832C348.314 108.264 347.818 107.048 346.826 106.184C345.834 105.32 344.362 104.888 342.41 104.888H337.13V114.728H342.41ZM379.96 131.672C376.408 131.672 373.208 130.92 370.36 129.416C367.544 127.912 365.32 125.832 363.688 123.176C362.088 120.52 361.288 117.528 361.288 114.2C361.288 110.872 362.088 107.88 363.688 105.224C365.32 102.568 367.544 100.488 370.36 98.9842C373.208 97.4802 376.408 96.7282 379.96 96.7282C383.512 96.7282 386.696 97.4802 389.512 98.9842C392.36 100.488 394.584 102.568 396.184 105.224C397.816 107.88 398.632 110.872 398.632 114.2C398.632 117.528 397.816 120.52 396.184 123.176C394.584 125.832 392.36 127.912 389.512 129.416C386.696 130.92 383.512 131.672 379.96 131.672ZM379.96 123.8C381.656 123.8 383.192 123.4 384.568 122.6C385.944 121.8 387.032 120.68 387.832 119.24C388.632 117.768 389.032 116.088 389.032 114.2C389.032 112.312 388.632 110.648 387.832 109.208C387.032 107.736 385.944 106.6 384.568 105.8C383.192 105 381.656 104.6 379.96 104.6C378.264 104.6 376.728 105 375.352 105.8C373.976 106.6 372.888 107.736 372.088 109.208C371.288 110.648 370.888 112.312 370.888 114.2C370.888 116.088 371.288 117.768 372.088 119.24C372.888 120.68 373.976 121.8 375.352 122.6C376.728 123.4 378.264 123.8 379.96 123.8ZM410.293 104.936H399.973V97.4002H430.069V104.936H419.797V131H410.293V104.936Z" fill="#FFEC9D"/>
<path d="M243.112 172.672C239.592 172.672 236.424 171.936 233.608 170.464C230.824 168.96 228.632 166.88 227.032 164.224C225.432 161.568 224.632 158.56 224.632 155.2C224.632 151.84 225.432 148.832 227.032 146.176C228.632 143.52 230.824 141.456 233.608 139.984C236.424 138.48 239.592 137.728 243.112 137.728C246.184 137.728 248.952 138.272 251.416 139.36C253.88 140.448 255.928 142.016 257.56 144.064L251.512 149.536C249.336 146.912 246.696 145.6 243.592 145.6C241.768 145.6 240.136 146 238.696 146.8C237.288 147.6 236.184 148.736 235.384 150.208C234.616 151.648 234.232 153.312 234.232 155.2C234.232 157.088 234.616 158.768 235.384 160.24C236.184 161.68 237.288 162.8 238.696 163.6C240.136 164.4 241.768 164.8 243.592 164.8C246.696 164.8 249.336 163.488 251.512 160.864L257.56 166.336C255.928 168.384 253.88 169.952 251.416 171.04C248.952 172.128 246.184 172.672 243.112 172.672ZM278.038 172.672C274.486 172.672 271.286 171.92 268.438 170.416C265.622 168.912 263.398 166.832 261.766 164.176C260.166 161.52 259.366 158.528 259.366 155.2C259.366 151.872 260.166 148.88 261.766 146.224C263.398 143.568 265.622 141.488 268.438 139.984C271.286 138.48 274.486 137.728 278.038 137.728C281.59 137.728 284.774 138.48 287.59 139.984C290.438 141.488 292.662 143.568 294.262 146.224C295.894 148.88 296.71 151.872 296.71 155.2C296.71 158.528 295.894 161.52 294.262 164.176C292.662 166.832 290.438 168.912 287.59 170.416C284.774 171.92 281.59 172.672 278.038 172.672ZM278.038 164.8C279.734 164.8 281.27 164.4 282.646 163.6C284.022 162.8 285.11 161.68 285.91 160.24C286.71 158.768 287.11 157.088 287.11 155.2C287.11 153.312 286.71 151.648 285.91 150.208C285.11 148.736 284.022 147.6 282.646 146.8C281.27 146 279.734 145.6 278.038 145.6C276.342 145.6 274.806 146 273.43 146.8C272.054 147.6 270.966 148.736 270.166 150.208C269.366 151.648 268.966 153.312 268.966 155.2C268.966 157.088 269.366 158.768 270.166 160.24C270.966 161.68 272.054 162.8 273.43 163.6C274.806 164.4 276.342 164.8 278.038 164.8ZM318.632 172.672C315.08 172.672 311.88 171.92 309.032 170.416C306.216 168.912 303.992 166.832 302.36 164.176C300.76 161.52 299.96 158.528 299.96 155.2C299.96 151.872 300.76 148.88 302.36 146.224C303.992 143.568 306.216 141.488 309.032 139.984C311.88 138.48 315.08 137.728 318.632 137.728C322.184 137.728 325.368 138.48 328.184 139.984C331.032 141.488 333.256 143.568 334.856 146.224C336.488 148.88 337.304 151.872 337.304 155.2C337.304 158.528 336.488 161.52 334.856 164.176C333.256 166.832 331.032 168.912 328.184 170.416C325.368 171.92 322.184 172.672 318.632 172.672ZM318.632 164.8C320.328 164.8 321.864 164.4 323.24 163.6C324.616 162.8 325.704 161.68 326.504 160.24C327.304 158.768 327.704 157.088 327.704 155.2C327.704 153.312 327.304 151.648 326.504 150.208C325.704 148.736 324.616 147.6 323.24 146.8C321.864 146 320.328 145.6 318.632 145.6C316.936 145.6 315.4 146 314.024 146.8C312.648 147.6 311.56 148.736 310.76 150.208C309.96 151.648 309.56 153.312 309.56 155.2C309.56 157.088 309.96 158.768 310.76 160.24C311.56 161.68 312.648 162.8 314.024 163.6C315.4 164.4 316.936 164.8 318.632 164.8ZM355.242 159.808L351.69 163.6V172H342.282V138.4H351.69V152.368L364.698 138.4H375.162L361.434 153.28L375.882 172H364.842L355.242 159.808ZM378.376 138.4H387.88V172H378.376V138.4ZM421.617 164.656V172H394.641V138.4H420.993V145.744H404.049V151.408H418.977V158.512H404.049V164.656H421.617Z" fill="#C24A79"/>
</svg>
